# Made in Blockbench 4.12.6
mtllib creeper3.mtl

o head
v -0.4750000000000001 1.7 -0.49999999999999994
v -0.4749999999999999 1.7 0.5000000000000001
v -0.4750000000000001 0.7 -0.49999999999999994
v -0.4749999999999999 0.7 0.5000000000000001
v 0.5249999999999999 1.7 -0.5000000000000001
v 0.5250000000000001 1.7 0.49999999999999994
v 0.5249999999999999 0.7 -0.5000000000000001
v 0.5250000000000001 0.7 0.49999999999999994
v -0.475 0.7 6.123233995736766e-17
v 0.525 0.7 -6.123233995736766e-17
v 0.525 1.7 -6.123233995736766e-17
v -0.475 1.7 6.123233995736766e-17
v -0.04999999999999998 0.7 0.1625
v -0.049999999999999996 0.7 9.184850993605149e-18
v 0.1 0.7 -9.184850993605149e-18
v 0.1 0.7 0.1625
v 0.09999999999999998 0.7 -0.1625
v -0.05000000000000001 0.7 -0.1625
v -0.04999999999999997 0.38125 0.178125
v -0.049999999999999996 0.38125 9.184850993605149e-18
v 0.1 0.38125 -9.184850993605149e-18
v 0.10000000000000003 0.38125 0.178125
v 0.09999999999999998 0.38125 -0.178125
v -0.050000000000000024 0.38125 -0.178125
vt 0.25 0.75
vt 0.3125 0.75
vt 0.3125 1
vt 0.25 1
vt 0.25 0.75
vt 0.18671875 0.75
vt 0.18671875 0.5
vt 0.25 0.5
vt 0.25 0.75
vt 0.25 0.875
vt 0.125 0.875
vt 0.125 0.75
vt 0.420280171875 0.3355625
vt 0.420280171875 0.26456696874999996
vt 0.45881465625000006 0.26456696874999996
vt 0.45881465625000006 0.3355625
vt 0.375625 0.500625
vt 0.375625 0.75
vt 0.25 0.75
vt 0.25 0.500625
vt 0.125 0.75
vt 0 0.75
vt 0 0.5
vt 0.125 0.5
vt 0.45881465625000006 0.19357143749999994
vt 0.45881465625000006 0.26456696874999996
vt 0.420280171875 0.26456696874999996
vt 0.420280171875 0.19357143749999994
vt 0.125 0.5
vt 0.18671875 0.5
vt 0.18671875 0.75
vt 0.125 0.75
vt 0.125 1
vt 0.125 0.875
vt 0.25 0.875
vt 0.25 1
vt 0.375 1
vt 0.3125 1
vt 0.3125 0.75
vt 0.375 0.75
vt 0.446875 0.625
vt 0.446875 0.584375
vt 0.5 0.5
vt 0.5 0.625
vt 0.428125 0.584375
vt 0.428125 0.625
vt 0.375 0.625
vt 0.375 0.5
vt 0.446875 0.584375
vt 0.428125 0.584375
vt 0.375 0.5
vt 0.5 0.5
vt 0.428125 0.625
vt 0.428125 0.665625
vt 0.375 0.75
vt 0.375 0.625
vt 0.446875 0.665625
vt 0.446875 0.625
vt 0.5 0.625
vt 0.5 0.75
vt 0.428125 0.665625
vt 0.446875 0.665625
vt 0.5 0.75
vt 0.375 0.75
vt 0.46373921874999996 0.35233034375000005
vt 0.509498921875 0.35233034375000005
vt 0.50548490625 0.479375
vt 0.46373921874999996 0.479375
vt 0.3153933125 0.34983034375
vt 0.361153015625 0.34983034375
vt 0.361153015625 0.47687499999999994
vt 0.319407328125 0.47687499999999994
vt 0.3178879375 0.21919643750000006
vt 0.35 0.21919643750000006
vt 0.35 0.34375
vt 0.3178879375 0.34375
vt 0.361153015625 0.34983034375
vt 0.40691271875 0.34983034375
vt 0.402898703125 0.47687499999999994
vt 0.361153015625 0.47687499999999994
vt 0.41797953125 0.35233034375000005
vt 0.46373921874999996 0.35233034375000005
vt 0.46373921874999996 0.479375
vt 0.42199353124999994 0.479375
vt 0.3546875 0.21250000000000002
vt 0.38679956249999997 0.21250000000000002
vt 0.38679956249999997 0.33705356249999996
vt 0.3546875 0.33705356249999996
vn -1 0 1.2246467991473532e-16
vn 1 0 -1.2246467991473532e-16
vn 0 1 0
vn 0 -1 0
vn -1.2246467991473532e-16 0 -1
vn 1.2246467991473532e-16 0 1
vn 0 -1 0
vn 1 0 -1.2246467991473532e-16
vn 0 1 0
vn -1 0 1.2246467991473532e-16
vn 0 -1 0
vn 0 -1 0
vn 0 -1 0
vn 0 -1 0
vn 0 -1 0
vn 0 -1 0
vn -1 0 1.2246467991473532e-16
vn 1 0 -1.2246467991473532e-16
vn 1.2231780801914994e-16 0.04896081862546416 0.9988006999594687
vn 1 0 -1.2246467991473532e-16
vn -1 0 1.2246467991473532e-16
vn -1.2231780801914994e-16 0.04896081862546416 -0.9988006999594687
usemtl m_6192be6c-f2ce-bb78-24b2-b84bcaea8b1a
f 3/1/1 9/2/1 12/3/1 1/4/1
f 5/5/2 11/6/2 10/7/2 7/8/2
f 1/9/3 12/10/3 11/11/3 5/12/3
f 23/13/4 21/14/4 20/15/4 24/16/4
f 3/17/5 1/18/5 5/19/5 7/20/5
f 6/21/6 2/22/6 4/23/6 8/24/6
f 19/25/7 20/26/7 21/27/7 22/28/7
f 8/29/8 10/30/8 11/31/8 6/32/8
f 6/33/9 11/34/9 12/35/9 2/36/9
f 2/37/10 12/38/10 9/39/10 4/40/10
f 14/41/11 13/42/11 4/43/11 9/44/11
f 16/45/12 15/46/12 10/47/12 8/48/12
f 13/49/13 16/50/13 8/51/13 4/52/13
f 15/53/14 17/54/14 7/55/14 10/56/14
f 18/57/15 14/58/15 9/59/15 3/60/15
f 17/61/16 18/62/16 3/63/16 7/64/16
f 20/65/17 19/66/17 13/67/17 14/68/17
f 22/69/18 21/70/18 15/71/18 16/72/18
f 19/73/19 22/74/19 16/75/19 13/76/19
f 21/77/20 23/78/20 17/79/20 15/80/20
f 24/81/21 20/82/21 14/83/21 18/84/21
f 23/85/22 24/86/22 18/87/22 17/88/22
o fl_leg
v 0.06215039166635547 0.44647352569160836 -0.28437500000000004
v 0.0621503916663555 0.44647352569160836 -0.02812500000000004
v -0.008394180510834987 0.046395376030398894 -0.3125
v -0.008394180510834931 0.046395376030398894 -0.01874999999999999
v 0.2591119422687971 0.4117438901582223 -0.28437500000000004
v 0.2591119422687971 0.4117438901582223 -0.02812500000000004
v 0.22549766082956443 0.005153933834502911 -0.3125
v 0.22549766082956446 0.005153933834502911 -0.018750000000000017
vt 0.243148265625 0.365625
vt 0.1903989375 0.365625
vt 0.18460937500000002 0.1875
vt 0.24507812499999998 0.1875
vt 0.12476562499999999 0.1875
vt 0.11882646875 0.34687500000000004
vt 0.06471409375 0.34687500000000004
vt 0.062734375 0.1875
vt 0.0625 0.375
vt 0.1234375 0.375
vt 0.1234375 0.5
vt 0.0625 0.5
vt 0.1875 0.375
vt 0.1875 0.5
vt 0.125 0.5
vt 0.125 0.375
vt 0.18125 0.1875
vt 0.18125 0.353125
vt 0.13343750000000001 0.353125
vt 0.125 0.1875
vt 0.05606085937500001 0.32499999999999996
vt 0.014218749999999999 0.32499999999999996
vt 0.014218749999999999 0.1875
vt 0.06390625 0.1875
vn -0.984807753012208 0.17364817766693033 1.2060416625018976e-16
vn 0.9965999520751554 -0.0823925695909418 -1.2204829413392447e-16
vn 0.17364817766693033 0.984807753012208 -2.1265768495757713e-17
vn -0.17364817766693033 -0.984807753012208 2.1265768495757713e-17
vn 0.01199309043308651 0.0680161957341953 -0.9976121304894561
vn 0.0040061990410618364 0.022720283787343202 0.9997338341147939
usemtl m_6192be6c-f2ce-bb78-24b2-b84bcaea8b1a
f 26/89/23 25/90/23 27/91/23 28/92/23
f 31/93/24 29/94/24 30/95/24 32/96/24
f 29/97/25 25/98/25 26/99/25 30/100/25
f 28/101/26 27/102/26 31/103/26 32/104/26
f 27/105/27 25/106/27 29/107/27 31/108/27
f 30/109/28 26/110/28 28/111/28 32/112/28
o bl_leg
v -0.008034811862637894 0.44214082641958474 -0.28437499999999993
v -0.008034811862637867 0.44214082641958474 -0.028124999999999983
v 0.04499145372675803 0.039366351486474216 -0.3125
v 0.044991453726758085 0.039366351486474216 -0.01874999999999999
v -0.2063237841374 0.4160355879755744 -0.28437499999999993
v -0.20632378413739993 0.4160355879755744 -0.028124999999999983
v -0.1904767008495219 0.008366380834211984 -0.3125
v -0.1904767008495219 0.008366380834211984 -0.01874999999999996
vt 0.18460937500000002 0.1875
vt 0.1903989375 0.365625
vt 0.243148265625 0.365625
vt 0.24507812499999998 0.1875
vt 0.06471409375 0.34687500000000004
vt 0.11882646875 0.34687500000000004
vt 0.12476562499999999 0.1875
vt 0.062734375 0.1875
vt 0.1234375 0.5
vt 0.1234375 0.375
vt 0.0625 0.375
vt 0.0625 0.5
vt 0.125 0.5
vt 0.1875 0.5
vt 0.1875 0.375
vt 0.125 0.375
vt 0.13343750000000001 0.353125
vt 0.18125 0.353125
vt 0.18125 0.1875
vt 0.125 0.1875
vt 0.014218749999999999 0.1875
vt 0.014218749999999999 0.32499999999999996
vt 0.05606085937500001 0.32499999999999996
vt 0.06390625 0.1875
vn 0.9914448613738104 0.13052619222005157 -1.2141697760125282e-16
vn -0.9992453231582614 -0.03884307076354838 1.2237225865687272e-16
vn -0.13052619222005157 0.9914448613738104 1.5984848350717833e-17
vn 0.13052619222005157 -0.9914448613738104 -1.5984848350717833e-17
vn -0.009014850879599334 0.06847459064431966 -0.9976121304894561
vn -0.0030113411677050402 0.022873407059415048 0.9997338341147939
usemtl m_6192be6c-f2ce-bb78-24b2-b84bcaea8b1a
f 35/113/29 33/114/29 34/115/29 36/116/29
f 38/117/30 37/118/30 39/119/30 40/120/30
f 34/121/31 33/122/31 37/123/31 38/124/31
f 39/125/32 35/126/32 36/127/32 40/128/32
f 37/129/33 33/130/33 35/131/33 39/132/33
f 36/133/34 34/134/34 38/135/34 40/136/34
o bl_leg
v 0.027436737424070323 0.3434950689467716 0.284375
v 0.027436737424070268 0.3434950689467716 0.02812500000000001
v -0.21987259311072246 0.02119527445345737 0.3125
v -0.2198725931107225 0.02119527445345737 0.018750000000000017
v -0.13123393063417674 0.46524735474851575 0.28437500000000004
v -0.13123393063417677 0.46524735474851575 0.02812500000000004
v -0.40829401142989086 0.1657761138430285 0.31250000000000006
v -0.40829401142989086 0.1657761138430285 0.018750000000000044
vt 0.243148265625 0.365625
vt 0.1903989375 0.365625
vt 0.18460937500000002 0.1875
vt 0.24507812499999998 0.1875
vt 0.12476562499999999 0.1875
vt 0.11882646875 0.34687500000000004
vt 0.06471409375 0.34687500000000004
vt 0.062734375 0.1875
vt 0.0625 0.375
vt 0.1234375 0.375
vt 0.1234375 0.5
vt 0.0625 0.5
vt 0.1875 0.375
vt 0.1875 0.5
vt 0.125 0.5
vt 0.125 0.375
vt 0.18125 0.1875
vt 0.18125 0.353125
vt 0.13343750000000001 0.353125
vt 0.125 0.1875
vt 0.05606085937500001 0.32499999999999996
vt 0.014218749999999999 0.32499999999999996
vt 0.014218749999999999 0.1875
vt 0.06390625 0.1875
vn 0.7933533402912352 -0.6087614290087207 -9.71577628780522e-17
vn -0.7340393428131636 0.6791069453351357 8.989389316243674e-17
vn 0.6087614290087207 0.7933533402912352 -7.455177354798984e-17
vn -0.6087614290087207 -0.7933533402912352 7.455177354798984e-17
vn 0.04204438519522137 0.054793309571921474 0.9976121304894561
vn 0.014044601480401967 0.018303281000703164 -0.9997338341147939
usemtl m_6192be6c-f2ce-bb78-24b2-b84bcaea8b1a
f 42/137/35 41/138/35 43/139/35 44/140/35
f 47/141/36 45/142/36 46/143/36 48/144/36
f 45/145/37 41/146/37 42/147/37 46/148/37
f 44/149/38 43/150/38 47/151/38 48/152/38
f 43/153/39 41/154/39 45/155/39 47/156/39
f 46/157/40 42/158/40 44/159/40 48/160/40
o fr_leg
v 0.18510984506216754 0.46776904436798805 0.28437499999999993
v 0.1851098450621675 0.46776904436798805 0.028124999999999983
v 0.443723773713811 0.15291279001155528 0.31249999999999994
v 0.443723773713811 0.15291279001155528 0.018749999999999933
v 0.0212794362043692 0.3530537570977788 0.284375
v 0.021279436204369145 0.3530537570977788 0.02812500000000001
v 0.24917516319517546 0.01668838637818182 0.3125
v 0.2491751631951754 0.01668838637818182 0.01874999999999996
vt 0.121373 0.35
vt 0.071349734375 0.35
vt 0.065859375 0.19062500000000004
vt 0.123203125 0.19062500000000004
vt 0.232578125 0.1875
vt 0.227835765625 0.35
vt 0.18462765625 0.35
vt 0.183046875 0.1875
vt 0.11875 0.48750000000000004
vt 0.0625 0.48750000000000004
vt 0.0625 0.37812500000000004
vt 0.11875 0.37812500000000004
vt 0.125 0.49687499999999996
vt 0.125 0.375
vt 0.1875 0.375
vt 0.1875 0.49687499999999996
vt 0.06218749999999999 0.1875
vt 0.0540049375 0.37187499999999996
vt 0.001636515625 0.37187499999999996
vt 0 0.1875
vt 0.18114309374999998 0.34687500000000004
vt 0.132722046875 0.34687500000000004
vt 0.12515625 0.1875
vt 0.18265625000000002 0.1875
vn 0.77274791555522 0.6347130524930636 -9.463432613324895e-17
vn -0.8278783291857419 -0.5609077215234468 1.0138585459207777e-16
vn -0.573576436351046 0.8191520442889918 7.024285468436541e-17
vn 0.573576436351046 -0.8191520442889918 -7.024285468436541e-17
vn -0.03961431766154184 0.0565751088067801 0.9976121304894561
vn -0.013232856227795494 0.018898477245230937 -0.9997338341147939
usemtl m_6192be6c-f2ce-bb78-24b2-b84bcaea8b1a
f 50/161/41 49/162/41 51/163/41 52/164/41
f 55/165/42 53/166/42 54/167/42 56/168/42
f 53/169/43 49/170/43 50/171/43 54/172/43
f 52/173/44 51/174/44 55/175/44 56/176/44
f 51/177/45 49/178/45 53/179/45 55/180/45
f 54/181/46 50/182/46 52/183/46 56/184/46