# Made in Blockbench 5.0.2
mtllib materials.mtl

o cuboid
v -0.25 0.365 0.115
v 0.3125 0.5 0.25
v 0.3125 0.5 -0.25
v 0.3125 0 0.25
v 0.3125 0 -0.25
v -0.1875 0.5 0.25
v -0.1875 0.5 -0.25
v -0.1875 0 0.25
v -0.1875 0 -0.25
v -0.1875 0.365 0.115
v -0.1875 0.365 -0.115
v -0.1875 0.135 0.115
v -0.1875 0.135 -0.115
v -0.25 0.365 -0.115
v -0.25 0.135 0.115
v -0.25 0.135 -0.115
vt 0.750833125 0.6250459374999999
vt 0.62466453125 0.6250459374999999
vt 0.62466453125 0.37270875000000003
vt 0.750833125 0.37270875000000003
vt 0.40598 0.20952468749999997
vt 0.40598 0.2853496875
vt 0.44389265625 0.2853496875
vt 0.44389265625 0.20952468749999997
vt 0.62508546875 0.875263125
vt 0.62508546875 0.6256165625
vt 0.7496915625 0.6256165625
vt 0.7496915625 0.875263125
vt 0.87361421875 0.37333375
vt 0.87361421875 0.6256709375
vt 1 0.6256709375
vt 1 0.37333375
vt 0.750914375 0.37333375
vt 0.750914375 0.6256709375
vt 0.87417515625 0.6256709375
vt 0.87417515625 0.37333375
vt 0.499976875 0.6256709375
vt 0.62480015625 0.6256709375
vt 0.62480015625 0.37333375
vt 0.499976875 0.37333375
vt 0.40598 0.2853496875
vt 0.40598 0.20952468749999997
vt 0.38372703125 0.1650184375
vt 0.38372703125 0.329855625
vt 0.44389265625 0.2853496875
vt 0.40598 0.2853496875
vt 0.38372703125 0.329855625
vt 0.466145625 0.329855625
vt 0.44389265625 0.20952468749999997
vt 0.44389265625 0.2853496875
vt 0.466145625 0.329855625
vt 0.466145625 0.1650184375
vt 0.40598 0.20952468749999997
vt 0.44389265625 0.20952468749999997
vt 0.466145625 0.1650184375
vt 0.38372703125 0.1650184375
vt 0.4661453125 0.12034968749999997
vt 0.4661453125 0.04452468750000005
vt 0.45698765625 0.04452468750000005
vt 0.45698765625 0.12034968749999997
vt 0.3573953125 0.9140896875
vt 0.3573953125 0.989915
vt 0.34823765625 0.989915
vt 0.34823765625 0.9140896875
vt 0.3011453125 0.04452468750000005
vt 0.3011453125 0.12034968749999997
vt 0.29198765625 0.12034968749999997
vt 0.29198765625 0.04452468750000005
vt 0.3836453125 0.12034968749999997
vt 0.3836453125 0.04452468750000005
vt 0.37448765625 0.04452468750000005
vt 0.37448765625 0.12034968749999997
vn 1 0 0
vn -1 0 0
vn 0 1 0
vn 0 -1 0
vn 0 0 1
vn 0 0 -1
vn -1 0 0
vn -1 0 0
vn -1 0 0
vn -1 0 0
vn 0 0 1
vn 0 1 0
vn 0 0 -1
vn 0 -1 0
usemtl m_15986d14-a404-6348-46fb-22e6f5ef008f
f 3/1/1 2/2/1 4/3/1 5/4/1
f 15/5/2 1/6/2 14/7/2 16/8/2
f 6/9/3 2/10/3 3/11/3 7/12/3
f 5/13/4 4/14/4 8/15/4 9/16/4
f 4/17/5 2/18/5 6/19/5 8/20/5
f 7/21/6 3/22/6 5/23/6 9/24/6
f 10/25/7 12/26/7 8/27/7 6/28/7
f 11/29/8 10/30/8 6/31/8 7/32/8
f 13/33/9 11/34/9 7/35/9 9/36/9
f 12/37/10 13/38/10 9/39/10 8/40/10
f 1/41/11 15/42/11 12/43/11 10/44/11
f 14/45/12 1/46/12 10/47/12 11/48/12
f 16/49/13 14/50/13 11/51/13 13/52/13
f 15/53/14 16/54/14 13/55/14 12/56/14
o cuboid
v -0.25 0.46875 0.28125
v -0.25 0.46875 -0.28125
v -0.25 0.03125 0.28125
v -0.25 0.03125 -0.28125
v -0.875 0.46875 0.28125
v -0.875 0.46875 -0.28125
v -0.875 0.03125 0.28125
v -0.875 0.03125 -0.28125
vt 0.3836453125 0.329855
vt 0.301226875 0.329855
vt 0.301226875 0.16501781250000003
vt 0.3836453125 0.16501781250000003
vt 0.383726875 0.16501781250000003
vt 0.383726875 0.329855
vt 0.4661453125 0.329855
vt 0.4661453125 0.16501781250000003
vt 0.301145 0.3298559375
vt 0.21872671875 0.3298559375
vt 0.21872671875 0.16501937499999997
vt 0.301145 0.16501937499999997
vt 0.30122671875 0.000019375000000043663
vt 0.30122671875 0.16485593750000005
vt 0.383645 0.16485593750000005
vt 0.383645 0.000019375000000043663
vt 0.38372671875 0.000017812499999991793
vt 0.38372671875 0.16485499999999997
vt 0.466145 0.16485499999999997
vt 0.466145 0.000017812499999991793
vt 0.301145 0.16485499999999997
vt 0.21872671875 0.16485499999999997
vt 0.21872671875 0.000017812499999991793
vt 0.301145 0.000017812499999991793
vn 1 0 0
vn -1 0 0
vn 0 1 0
vn 0 -1 0
vn 0 0 1
vn 0 0 -1
usemtl m_15986d14-a404-6348-46fb-22e6f5ef008f
f 18/57/15 17/58/15 19/59/15 20/60/15
f 23/61/16 21/62/16 22/63/16 24/64/16
f 21/65/17 17/66/17 18/67/17 22/68/17
f 20/69/18 19/70/18 23/71/18 24/72/18
f 19/73/19 17/74/19 21/75/19 23/76/19
f 22/77/20 18/78/20 20/79/20 24/80/20
o cuboid
v -0.21634127715519888 0.2527251910640906 0.09570474090390196
v 0.14757606571413667 -0.005146637356897521 -0.7572152657003159
v -0.22169226785908072 0.1325697617194792 0.12974941299072157
v 0.14222507501025478 -0.12530206670150892 -0.7231705936134962
v -0.37817710468852206 0.24134267531398262 0.03009526550740904
v -0.014259761819186562 -0.01652915310700548 -0.8228247410968088
v -0.3835280953924039 0.12118724596937125 0.06413993759422865
v -0.019610752523068403 -0.13668458245161688 -0.7887800690099892
vt 0.3836440625 0.329843125
vt 0.30122609375 0.329843125
vt 0.30122609375 0.16500000000000004
vt 0.3836440625 0.16500000000000004
vt 0.30115140625 0.3298575
vt 0.2187309375 0.3298575
vt 0.2187309375 0.1650215625
vt 0.30115140625 0.1650215625
vt 0.3012309375 0.00002156249999996085
vt 0.3012309375 0.1648575
vt 0.38365140625 0.1648575
vt 0.38365140625 0.00002156249999996085
vt 0.3837309375 0
vt 0.3837309375 0.16484312499999998
vt 0.46615140625 0.16484312499999998
vt 0.46615140625 0
vt 0.30115140625 0.16484312499999998
vt 0.2187309375 0.16484312499999998
vt 0.2187309375 0
vt 0.30115140625 0
vt 0.38372609375 0.16500000000000004
vt 0.38372609375 0.329843125
vt 0.4661440625 0.329843125
vt 0.4661440625 0.16500000000000004
vn 0.9247761573332755 0.06504294714347407 0.3749112879799595
vn 0.042807925631054664 0.9612434347568912 -0.27235737669455673
vn -0.042807925631054664 -0.9612434347568912 0.27235737669455673
vn -0.37809594064346547 0.2679187827750526 0.8861506562121744
vn 0.37809594064346547 -0.2679187827750526 -0.8861506562121744
vn -0.9247761573332755 -0.06504294714347407 -0.3749112879799595
usemtl m_15986d14-a404-6348-46fb-22e6f5ef008f
f 26/81/21 25/82/21 27/83/21 28/84/21
f 29/85/22 25/86/22 26/87/22 30/88/22
f 28/89/23 27/90/23 31/91/23 32/92/23
f 27/93/24 25/94/24 29/95/24 31/96/24
f 30/97/25 26/98/25 28/99/25 32/100/25
f 31/101/26 29/102/26 30/103/26 32/104/26
o cuboid
v -0.16250908753006307 0.22551861417002655 0.10775938194916646
v -0.05009641332714962 -0.012064958519550167 -0.8181583717777001
v -0.1761817930041685 0.10477788453585773 0.13708059154950392
v -0.06376911880125502 -0.13280568815371896 -0.7888371621773627
v -0.3352541390189948 0.23913857803608424 0.08329218410442729
v -0.22284146481608136 0.0015550053465075153 -0.8426255696224393
v -0.34892684449310024 0.11839784840191542 0.11261339370476475
v -0.23651417029018676 -0.11918572428766128 -0.8133043600221018
vt 0.3836440625 0.329843125
vt 0.30122609375 0.329843125
vt 0.30122609375 0.16500000000000004
vt 0.3836440625 0.16500000000000004
vt 0.30115140625 0.3298575
vt 0.2187309375 0.3298575
vt 0.2187309375 0.1650215625
vt 0.30115140625 0.1650215625
vt 0.3012309375 0.00002156249999996085
vt 0.3012309375 0.1648575
vt 0.38365140625 0.1648575
vt 0.38365140625 0.00002156249999996085
vt 0.3837309375 0
vt 0.3837309375 0.16484312499999998
vt 0.46615140625 0.16484312499999998
vt 0.46615140625 0
vt 0.30115140625 0.16484312499999998
vt 0.2187309375 0.16484312499999998
vt 0.2187309375 0
vt 0.30115140625 0
vt 0.38372609375 0.16500000000000004
vt 0.38372609375 0.329843125
vt 0.4661440625 0.329843125
vt 0.4661440625 0.16500000000000004
vn 0.9871145799367529 -0.07782836494890094 0.1398125591127952
vn 0.10938164379284329 0.9659258370733504 -0.23456967680269944
vn -0.10938164379284329 -0.9659258370733504 0.23456967680269944
vn -0.11679238878224775 0.2468400755216381 0.9619924714045367
vn 0.11679238878224775 -0.2468400755216381 -0.9619924714045367
vn -0.9871145799367529 0.07782836494890094 -0.1398125591127952
usemtl m_15986d14-a404-6348-46fb-22e6f5ef008f
f 34/105/27 33/106/27 35/107/27 36/108/27
f 37/109/28 33/110/28 34/111/28 38/112/28
f 36/113/29 35/114/29 39/115/29 40/116/29
f 35/117/30 33/118/30 37/119/30 39/120/30
f 38/121/31 34/122/31 36/123/31 40/124/31
f 39/125/32 37/126/32 38/127/32 40/128/32
o cuboid
v -0.1129638520597766 0.20072645851344031 0.011575508739780527
v -0.5543325306331901 0.042978099926558294 -0.8290881546461799
v -0.12175181375668542 0.0790921148578812 0.039013769848950774
v -0.563120492330099 -0.07865624372900082 -0.8016498935370097
v -0.2679920899993825 0.22908734450896853 0.08764722218761595
v -0.7093607685727961 0.07133898592208651 -0.7530164411983444
v -0.27678005169629133 0.10745300085340939 0.1150854832967862
v -0.7181487302697048 -0.050295357733472656 -0.7255781800891743
vt 0.3836440625 0.329843125
vt 0.30122609375 0.329843125
vt 0.30122609375 0.16500000000000004
vt 0.3836440625 0.16500000000000004
vt 0.30115140625 0.3298575
vt 0.2187309375 0.3298575
vt 0.2187309375 0.1650215625
vt 0.30115140625 0.1650215625
vt 0.3012309375 0.00002156249999996085
vt 0.3012309375 0.1648575
vt 0.38365140625 0.1648575
vt 0.38365140625 0.00002156249999996085
vt 0.3837309375 0
vt 0.3837309375 0.16484312499999998
vt 0.46615140625 0.16484312499999998
vt 0.46615140625 0
vt 0.30115140625 0.16484312499999998
vt 0.2187309375 0.16484312499999998
vt 0.2187309375 0
vt 0.30115140625 0
vt 0.38372609375 0.16500000000000004
vt 0.38372609375 0.329843125
vt 0.4661440625 0.329843125
vt 0.4661440625 0.16500000000000004
vn 0.8858756453691768 -0.16206220568873245 -0.43469550541620233
vn 0.0703036935752705 0.9730747492444731 -0.21950608887336204
vn -0.0703036935752705 -0.9730747492444731 0.21950608887336204
vn 0.4585648608554945 0.1638943985318255 0.8734167931282706
vn -0.4585648608554945 -0.1638943985318255 -0.8734167931282706
vn -0.8858756453691768 0.16206220568873245 0.43469550541620233
usemtl m_15986d14-a404-6348-46fb-22e6f5ef008f
f 42/129/33 41/130/33 43/131/33 44/132/33
f 45/133/34 41/134/34 42/135/34 46/136/34
f 44/137/35 43/138/35 47/139/35 48/140/35
f 43/141/36 41/142/36 45/143/36 47/144/36
f 46/145/37 42/146/37 44/147/37 48/148/37
f 47/149/38 45/150/38 46/151/38 48/152/38
o cuboid
v -0.09153378349588565 0.18861047249215646 -0.14309117402157195
v -0.801683355981073 -0.017291202790318483 -0.7592878429633767
v -0.10045427897465609 0.07380878755294304 -0.09444964962594027
v -0.8106038514598434 -0.1320928877295319 -0.7106463185677451
v -0.20899674671014568 0.2468497995523955 -0.02717899581541494
v -0.919146319195333 0.04094812426992056 -0.6433756647572197
v -0.21791724218891606 0.1320481146131821 0.021462528580216744
v -0.9280668146741033 -0.0738535606692928 -0.594734140361588
vt 0.3836440625 0.329843125
vt 0.30122609375 0.329843125
vt 0.30122609375 0.16500000000000004
vt 0.3836440625 0.16500000000000004
vt 0.30115140625 0.3298575
vt 0.2187309375 0.3298575
vt 0.2187309375 0.1650215625
vt 0.30115140625 0.1650215625
vt 0.3012309375 0.00002156249999996085
vt 0.3012309375 0.1648575
vt 0.38365140625 0.1648575
vt 0.38365140625 0.00002156249999996085
vt 0.3837309375 0
vt 0.3837309375 0.16484312499999998
vt 0.46615140625 0.16484312499999998
vt 0.46615140625 0
vt 0.30115140625 0.16484312499999998
vt 0.2187309375 0.16484312499999998
vt 0.2187309375 0
vt 0.30115140625 0
vt 0.38372609375 0.16500000000000004
vt 0.38372609375 0.329843125
vt 0.4661440625 0.329843125
vt 0.4661440625 0.16500000000000004
vn 0.6712169326529144 -0.3327961546299378 -0.662355304035183
vn 0.07136396383016333 0.918413479513707 -0.38913219516505326
vn -0.07136396383016333 -0.918413479513707 0.38913219516505326
vn 0.7378177376469477 0.21392381847529865 0.6402043313681088
vn -0.7378177376469477 -0.21392381847529865 -0.6402043313681088
vn -0.6712169326529144 0.3327961546299378 0.662355304035183
usemtl m_15986d14-a404-6348-46fb-22e6f5ef008f
f 50/153/39 49/154/39 51/155/39 52/156/39
f 53/157/40 49/158/40 50/159/40 54/160/40
f 52/161/41 51/162/41 55/163/41 56/164/41
f 51/165/42 49/166/42 53/167/42 55/168/42
f 54/169/43 50/170/43 52/171/43 56/172/43
f 55/173/44 53/174/44 54/175/44 56/176/44
o cuboid
v -0.0653079918842483 0.17560745934410738 0.2097467829015197
v -0.9495710160231022 0.05603299715899446 0.570561281132882
v -0.06048426553727676 0.05399124999486543 0.1812646957650248
v -0.9447472896761306 -0.06558321219024744 0.542079193996387
v -0.13408853269065257 0.20970954822209342 0.052484947923873315
v -1.0183515568295065 0.0901350860369805 0.41329944615523556
v -0.12926480634368098 0.08809333887285148 0.0240028607873784
v -1.013527830482535 -0.03148112331226138 0.38481735901874065
vt 0.3836440625 0.16500000000000004
vt 0.3836440625 0.329843125
vt 0.30122609375 0.329843125
vt 0.30122609375 0.16500000000000004
vt 0.2187309375 0.3298575
vt 0.2187309375 0.1650215625
vt 0.30115140625 0.1650215625
vt 0.30115140625 0.3298575
vt 0.38365140625 0.00002156249999996085
vt 0.3012309375 0.00002156249999996085
vt 0.3012309375 0.1648575
vt 0.38365140625 0.1648575
vt 0.30115140625 0.16484312499999998
vt 0.2187309375 0.16484312499999998
vt 0.2187309375 0
vt 0.30115140625 0
vt 0.3837309375 0
vt 0.3837309375 0.16484312499999998
vt 0.46615140625 0.16484312499999998
vt 0.46615140625 0
vt 0.38372609375 0.329843125
vt 0.4661440625 0.329843125
vt 0.4661440625 0.16500000000000004
vt 0.38372609375 0.16500000000000004
vn 0.3930316617508816 -0.1948690793027774 0.8986390570151225
vn -0.03858981077577259 0.9729296747939356 0.22785669709195938
vn 0.03858981077577259 -0.9729296747939356 -0.22785669709195938
vn 0.9187148302741339 0.12423320746505236 -0.37487220595466203
vn -0.9187148302741339 -0.12423320746505236 0.37487220595466203
vn -0.3930316617508816 0.1948690793027774 -0.8986390570151225
usemtl m_15986d14-a404-6348-46fb-22e6f5ef008f
f 59/177/45 57/178/45 58/179/45 60/180/45
f 58/181/46 57/182/46 61/183/46 62/184/46
f 63/185/47 59/186/47 60/187/47 64/188/47
f 61/189/48 57/190/48 59/191/48 63/192/48
f 60/193/49 58/194/49 62/195/49 64/196/49
f 62/197/50 61/198/50 63/199/50 64/200/50
o cuboid
v -0.31857839328295257 0.24553447438344606 -0.07313600748882984
v 0.3993259574557142 0.012559868992856493 0.524143178850015
v -0.3380589289765066 0.12438526158038704 -0.09697666532982255
v 0.3798454217621602 -0.10858934381020251 0.5003025210090224
v -0.4319080967031125 0.23756357477613005 0.05997238098518279
v 0.2859962540355543 0.004588969385540487 0.6572515673240277
v -0.4513886323966666 0.11641436197307098 0.03613172314419008
v 0.26651571834200016 -0.11656024341751857 0.633410909483035
vt 0.3836440625 0.16500000000000004
vt 0.3836440625 0.329843125
vt 0.30122609375 0.329843125
vt 0.30122609375 0.16500000000000004
vt 0 0.21879781249999997
vt 0 0.05396187500000005
vt 0.08242046875 0.05396187500000005
vt 0.08242046875 0.21879781249999997
vt 0.38365140625 0.00002156249999996085
vt 0.3012309375 0.00002156249999996085
vt 0.3012309375 0.1648575
vt 0.38365140625 0.1648575
vt 0.30115140625 0.16484312499999998
vt 0.2187309375 0.16484312499999998
vt 0.2187309375 0
vt 0.30115140625 0
vt 0.3837309375 0
vt 0.3837309375 0.16484312499999998
vt 0.46615140625 0.16484312499999998
vt 0.46615140625 0
vt 0.38372609375 0.329843125
vt 0.4661440625 0.329843125
vt 0.4661440625 0.16500000000000004
vt 0.38372609375 0.16500000000000004
vn 0.6475983052580572 0.04554799775609175 -0.7606193627086437
vn 0.15584428554843216 0.9691937024244723 0.19072526272794152
vn -0.15584428554843216 -0.9691937024244723 -0.19072526272794152
vn -0.7458746501180953 0.242051538068145 -0.6205498039884103
vn 0.7458746501180953 -0.242051538068145 0.6205498039884103
vn -0.6475983052580572 -0.04554799775609175 0.7606193627086437
usemtl m_15986d14-a404-6348-46fb-22e6f5ef008f
f 67/201/51 65/202/51 66/203/51 68/204/51
f 66/205/52 65/206/52 69/207/52 70/208/52
f 71/209/53 67/210/53 68/211/53 72/212/53
f 69/213/54 65/214/54 67/215/54 71/216/54
f 68/217/55 66/218/55 70/219/55 72/220/55
f 70/221/56 69/222/56 71/223/56 72/224/56
o cuboid
v -0.06283280118659998 0.21765970645255844 -0.04185763146239807
v -0.2340198448715074 0.0024363569749547564 0.8805198161771585
v -0.06752470168389713 0.09621089147401685 -0.07106672953185966
v -0.23871174536880455 -0.11901245800358688 0.8513107181076969
v -0.23491735086003313 0.2312275935107248 -0.07062949626933318
v -0.4061043945449405 0.016004244033121118 0.8517479513702234
v -0.23960925135733027 0.10977877853218326 -0.09983859433879483
v -0.4107962950422377 -0.10544457094542047 0.8225388533007617
vt 0.3836440625 0.16500000000000004
vt 0.3836440625 0.329843125
vt 0.30122609375 0.329843125
vt 0.30122609375 0.16500000000000004
vt 0.2187309375 0.3298575
vt 0.2187309375 0.1650215625
vt 0.30115140625 0.1650215625
vt 0.30115140625 0.3298575
vt 0.38365140625 0.00002156249999996085
vt 0.3012309375 0.00002156249999996085
vt 0.3012309375 0.1648575
vt 0.38365140625 0.1648575
vt 0.30115140625 0.16484312499999998
vt 0.2187309375 0.16484312499999998
vt 0.2187309375 0
vt 0.30115140625 0
vt 0.3837309375 0
vt 0.3837309375 0.16484312499999998
vt 0.46615140625 0.16484312499999998
vt 0.46615140625 0
vt 0.38372609375 0.329843125
vt 0.4661440625 0.329843125
vt 0.4661440625 0.16500000000000004
vt 0.38372609375 0.16500000000000004
vn 0.9833402838481895 -0.07753078318952225 0.1644106560396294
vn 0.037535203978377285 0.9715905198283329 0.23367278455569324
vn -0.037535203978377285 -0.9715905198283329 -0.23367278455569324
vn 0.17785666876354017 0.22360867478192592 -0.958314231313825
vn -0.17785666876354017 -0.22360867478192592 0.958314231313825
vn -0.9833402838481895 0.07753078318952225 -0.1644106560396294
usemtl m_15986d14-a404-6348-46fb-22e6f5ef008f
f 75/225/57 73/226/57 74/227/57 76/228/57
f 74/229/58 73/230/58 77/231/58 78/232/58
f 79/233/59 75/234/59 76/235/59 80/236/59
f 77/237/60 73/238/60 75/239/60 79/240/60
f 76/241/61 74/242/61 78/243/61 80/244/61
f 78/245/62 77/246/62 79/247/62 80/248/62
o cuboid
v -0.1417383206937557 0.20986209344741294 -0.05838510921589418
v -0.394662955717309 0.01763975704407686 0.8501774656163762
v -0.15667687161747046 0.08935293938431191 -0.08803950995668419
v -0.4096015066410238 -0.10286939701902414 0.8205230648755862
v -0.30928791415043244 0.24051363784845994 -0.09854250652116009
v -0.5622125491739858 0.04829130144512386 0.8100200683111104
v -0.3242264650741472 0.12000448378535891 -0.1281969072619501
v -0.5771511000977005 -0.0722178526179772 0.7803656675703203
vt 0.3836440625 0.16500000000000004
vt 0.3836440625 0.329843125
vt 0.30122609375 0.329843125
vt 0.30122609375 0.16500000000000004
vt 0.2187309375 0.3298575
vt 0.2187309375 0.1650215625
vt 0.30115140625 0.1650215625
vt 0.30115140625 0.3298575
vt 0.38365140625 0.00002156249999996085
vt 0.3012309375 0.00002156249999996085
vt 0.3012309375 0.1648575
vt 0.38365140625 0.1648575
vt 0.30115140625 0.16484312499999998
vt 0.2187309375 0.16484312499999998
vt 0.2187309375 0
vt 0.30115140625 0
vt 0.3837309375 0
vt 0.3837309375 0.16484312499999998
vt 0.46615140625 0.16484312499999998
vt 0.46615140625 0
vt 0.38372609375 0.329843125
vt 0.4661440625 0.329843125
vt 0.4661440625 0.16500000000000004
vt 0.38372609375 0.16500000000000004
vn 0.9574262483238674 -0.17515168229169692 0.2294708417443766
vn 0.1195084073897181 0.964073232504808 0.23723520592632022
vn -0.1195084073897181 -0.964073232504808 -0.23723520592632022
vn 0.26277884158291254 0.19971151834112835 -0.9439611167088524
vn -0.26277884158291254 -0.19971151834112835 0.9439611167088524
vn -0.9574262483238674 0.17515168229169692 -0.2294708417443766
usemtl m_15986d14-a404-6348-46fb-22e6f5ef008f
f 83/249/63 81/250/63 82/251/63 84/252/63
f 82/253/64 81/254/64 85/255/64 86/256/64
f 87/257/65 83/258/65 84/259/65 88/260/65
f 85/261/66 81/262/66 83/263/66 87/264/66
f 84/265/67 82/266/67 86/267/67 88/268/67
f 86/269/68 85/270/68 87/271/68 88/272/68