# Made in Blockbench 4.12.6
mtllib steve0.mtl

o head
v 0.5 1.725 0.5
v 0.5 1.725 -0.5
v 0.5 0.725 0.5
v 0.5 0.725 -0.5
v -0.5 1.725 0.5
v -0.5 1.725 -0.5
v -0.5 0.725 0.5
v -0.5 0.725 -0.5
v 0.5 0.725 0
v -0.5 0.725 0
v -0.5 1.725 0
v 0.5 1.725 0
v 0.07500000000000001 0.725 -0.18750000000000003
v 0.07500000000000001 0.725 0
v -0.07500000000000001 0.725 0
v -0.07500000000000001 0.725 -0.18750000000000003
v -0.07500000000000001 0.725 0.18750000000000003
v 0.07500000000000001 0.725 0.18750000000000003
v 0.07500000000000001 0.35 -0.225
v 0.07500000000000001 0.35 0
v -0.07500000000000001 0.35 0
v -0.07500000000000001 0.35 -0.225
v -0.07500000000000001 0.35 0.225
v 0.07500000000000001 0.35 0.225
vt 0.125 0.75
vt 0.1875 0.75
vt 0.1875 0.875
vt 0.125 0.875
vt 0.5 0.875
vt 0.4375 0.875
vt 0.4375 0.75
vt 0.5 0.75
vt 0.25 0.875
vt 0.25 0.9375
vt 0.125 0.9375
vt 0.125 0.875
vt 0.5640625 0.7312500000000001
vt 0.5078125 0.7312500000000001
vt 0.5078125 0.69375
vt 0.5640625 0.69375
vt 0.125 0.75
vt 0.125 0.875
vt 0 0.875
vt 0 0.75
vt 0.375 0.875
vt 0.25 0.875
vt 0.25 0.75
vt 0.375 0.75
vt 0.4515625 0.69375
vt 0.5078125 0.69375
vt 0.5078125 0.7312500000000001
vt 0.4515625 0.7312500000000001
vt 0.375 0.75
vt 0.4375 0.75
vt 0.4375 0.875
vt 0.375 0.875
vt 0.125 1
vt 0.125 0.9375
vt 0.25 0.9375
vt 0.25 1
vt 0.25 0.875
vt 0.1875 0.875
vt 0.1875 0.75
vt 0.25 0.75
vt 0.312662188450559 0.946873596956692
vt 0.336096180842289 0.9464681258302945
vt 0.3760719027150066 0.9989093900408865
vt 0.31358125633706 0.9999906463779465
vt 0.33577180394117095 0.9277209319169104
vt 0.312337811549441 0.928126403043308
vt 0.31141874366294 0.8750093536220535
vt 0.3739093900408865 0.8739280972849934
vt 0.336096180842289 0.9464681258302945
vt 0.33577180394117095 0.9277209319169104
vt 0.3739093900408865 0.8739280972849934
vt 0.3760719027150066 0.9989093900408865
vt 0.312337811549441 0.928126403043308
vt 0.288903819157711 0.9285318741697055
vt 0.24892809728499338 0.8760906099591135
vt 0.31141874366294 0.8750093536220535
vt 0.28922819605882905 0.9472790680830895
vt 0.312662188450559 0.946873596956692
vt 0.31358125633706 0.9999906463779465
vt 0.2510906099591135 1
vt 0.288903819157711 0.9285318741697055
vt 0.28922819605882905 0.9472790680830895
vt 0.2510906099591135 1
vt 0.24892809728499338 0.8760906099591135
vt 0.375 0.59375
vt 0.43125 0.59375
vt 0.421875 0.6875
vt 0.375 0.6875
vt 0.50625 0.53125
vt 0.5625 0.53125
vt 0.5625 0.625
vt 0.515625 0.625
vt 0.28125 0.5625
vt 0.3125 0.5625
vt 0.3125 0.65625
vt 0.28125 0.65625
vt 0.5625 0.53125
vt 0.61875 0.53125
vt 0.609375 0.625
vt 0.5625 0.625
vt 0.31875 0.59375
vt 0.375 0.59375
vt 0.375 0.6875
vt 0.328125 0.6875
vt 0.453125 0.546875
vt 0.484375 0.546875
vt 0.484375 0.640625
vt 0.453125 0.640625
vn 1 0 0
vn -1 0 0
vn 0 1 0
vn 0 -1 0
vn 0 0 1
vn 0 0 -1
vn 0 -1 0
vn -1 0 0
vn 0 1 0
vn 1 0 0
vn 0 -1 0
vn 0 -1 0
vn 0 -1 0
vn 0 -1 0
vn 0 -1 0
vn 0 -1 0
vn 1 0 0
vn -1 0 0
vn 0 0.09950371902099887 -0.9950371902099893
vn -1 0 0
vn 1 0 0
vn 0 0.09950371902099887 0.9950371902099893
usemtl m_2e9166c8-080e-a34d-58b0-8b41c6282c56
f 3/1/1 9/2/1 12/3/1 1/4/1
f 5/5/2 11/6/2 10/7/2 7/8/2
f 1/9/3 12/10/3 11/11/3 5/12/3
f 23/13/4 21/14/4 20/15/4 24/16/4
f 3/17/5 1/18/5 5/19/5 7/20/5
f 6/21/6 2/22/6 4/23/6 8/24/6
f 19/25/7 20/26/7 21/27/7 22/28/7
f 8/29/8 10/30/8 11/31/8 6/32/8
f 6/33/9 11/34/9 12/35/9 2/36/9
f 2/37/10 12/38/10 9/39/10 4/40/10
f 14/41/11 13/42/11 4/43/11 9/44/11
f 16/45/12 15/46/12 10/47/12 8/48/12
f 13/49/13 16/50/13 8/51/13 4/52/13
f 15/53/14 17/54/14 7/55/14 10/56/14
f 18/57/15 14/58/15 9/59/15 3/60/15
f 17/61/16 18/62/16 3/63/16 7/64/16
f 20/65/17 19/66/17 13/67/17 14/68/17
f 22/69/18 21/70/18 15/71/18 16/72/18
f 19/73/19 22/74/19 16/75/19 13/76/19
f 21/77/20 23/78/20 17/79/20 15/80/20
f 24/81/21 20/82/21 14/83/21 18/84/21
f 23/85/22 24/86/22 18/87/22 17/88/22
o r_arm
v 0.09375 0.7414309292541581 0.31250659840838163
v 0.09375 0.7283648713457014 0.1881913614873474
v 0.09375 0.2952026821292807 0.37197593057092915
v 0.09375 0.27952341263913266 0.22279764626568807
v -0.09375 0.7414309292541581 0.31250659840838163
v -0.09375 0.7283648713457014 0.1881913614873474
v -0.09375 0.2952026821292807 0.37197593057092915
v -0.09375 0.27952341263913266 0.22279764626568807
vt 0.6171875 0.15625
vt 0.5859375 0.15625
vt 0.5828125 0.046875
vt 0.6203125 0.046875
vt 0.546875 0.04283888474018205
vt 0.546875 0.15538227914873892
vt 0.5218725901290795 0.15625
vt 0.515625 0.0438801497616953
vt 0.640625 0.5625
vt 0.6875 0.5625
vt 0.6875 0.59375
vt 0.640625 0.59375
vt 0.6875 0.203125
vt 0.6875 0.234375
vt 0.640625 0.234375
vt 0.640625 0.203125
vt 0.734375 0.046875
vt 0.734375 0.15625
vt 0.6875 0.15625
vt 0.6875 0.046875
vt 0.6875 0.15625
vt 0.640625 0.15625
vt 0.640625 0.046875
vt 0.6875 0.046875
vn 1 0 0
vn -1 0 0
vn 0 0.9945218953682733 -0.10452846326765346
vn 0 -0.9945218953682733 0.10452846326765346
vn 0 0.13210311559170881 0.9912359793969162
vn 0 -0.07687320291031995 -0.9970408771330838
usemtl m_2e9166c8-080e-a34d-58b0-8b41c6282c56
f 26/89/23 25/90/23 27/91/23 28/92/23
f 31/93/24 29/94/24 30/95/24 32/96/24
f 29/97/25 25/98/25 26/99/25 30/100/25
f 28/101/26 27/102/26 31/103/26 32/104/26
f 27/105/27 25/106/27 29/107/27 31/108/27
f 30/109/28 26/110/28 28/111/28 32/112/28
o l_arm
v 0.09375 0.7414309292541581 -0.31250659840838163
v 0.09375 0.7283648713457014 -0.1881913614873474
v 0.09375 0.2952026821292807 -0.37197593057092915
v 0.09375 0.27952341263913266 -0.22279764626568807
v -0.09375 0.7414309292541581 -0.31250659840838163
v -0.09375 0.7283648713457014 -0.1881913614873474
v -0.09375 0.2952026821292807 -0.37197593057092915
v -0.09375 0.27952341263913266 -0.22279764626568807
vt 0.71875 0.542838884740182
vt 0.71875 0.6553822791487389
vt 0.6937475901290795 0.65625
vt 0.6875 0.5438801497616953
vt 0.7890625 0.65625
vt 0.7578125 0.65625
vt 0.7546875 0.546875
vt 0.7921875 0.546875
vt 0.703125 0.359375
vt 0.703125 0.390625
vt 0.65625 0.390625
vt 0.65625 0.359375
vt 0.765625 0.703125
vt 0.8125 0.703125
vt 0.8125 0.734375
vt 0.765625 0.734375
vt 0.875 0.65625
vt 0.828125 0.65625
vt 0.828125 0.546875
vt 0.875 0.546875
vt 0.6875 0.546875
vt 0.6875 0.65625
vt 0.640625 0.65625
vt 0.640625 0.546875
vn 1 0 0
vn -1 0 0
vn 0 0.9945218953682733 0.10452846326765346
vn 0 -0.9945218953682733 -0.10452846326765346
vn 0 0.13210311559170881 -0.9912359793969162
vn 0 -0.07687320291031995 0.9970408771330838
usemtl m_2e9166c8-080e-a34d-58b0-8b41c6282c56
f 35/113/29 33/114/29 34/115/29 36/116/29
f 38/117/30 37/118/30 39/119/30 40/120/30
f 34/121/31 33/122/31 37/123/31 38/124/31
f 39/125/32 35/126/32 36/127/32 40/128/32
f 37/129/33 33/130/33 35/131/33 39/132/33
f 36/133/34 34/134/34 38/135/34 40/136/34
o r_leg
v 0.08749999999999995 0.35395743290882314 0.20636658252791776
v 0.08749999999999995 0.35148355543575605 0.0065569382115461955
v 0.08749999999999995 0.004835797697239463 0.23412147087555862
v 0.08749999999999995 -0.004978564459961143 0.009335621019640583
v -0.08749999999999995 0.35395743290882314 0.20636658252791776
v -0.08749999999999995 0.35148355543575605 0.0065569382115461955
v -0.08749999999999995 0.004835797697239463 0.23412147087555862
v -0.08749999999999995 -0.004978564459961143 0.009335621019640583
vt 0.12145191623554269 0.59375
vt 0.07149627338669723 0.59375
vt 0.0656387331607533 0.5063903706080352
vt 0.1218612668392467 0.5046327566655888
vt 0.24886135433562456 0.5090065026545291
vt 0.24312412505500586 0.5979140495127622
vt 0.19733453098865034 0.597703178823707
vt 0.19733453098865036 0.5070700312601584
vt 0.65625 0.703125
vt 0.703125 0.703125
vt 0.703125 0.75
vt 0.65625 0.75
vt 0.171875 0.703125
vt 0.171875 0.75
vt 0.140625 0.75
vt 0.140625 0.703125
vt 0.0625 0.5
vt 0.0625 0.609375
vt 0.015625 0.609375
vt 0.015625 0.5
vt 0.18125 0.59375
vt 0.140625 0.59375
vt 0.140625 0.5046875
vt 0.18125 0.5046875
vn 1 0 0
vn -1 0 0
vn 0 0.9999233621071293 -0.01238022263026321
vn 0 -0.9990482215818578 0.043619387365336
vn 0 0.0792491555462739 0.996854839655806
vn 0 -0.007794933133080462 -0.9999696190472243
usemtl m_2e9166c8-080e-a34d-58b0-8b41c6282c56
f 42/137/35 41/138/35 43/139/35 44/140/35
f 47/141/36 45/142/36 46/143/36 48/144/36
f 45/145/37 41/146/37 42/147/37 46/148/37
f 44/149/38 43/150/38 47/151/38 48/152/38
f 43/153/39 41/154/39 45/155/39 47/156/39
f 46/157/40 42/158/40 44/159/40 48/160/40
o l_leg
v -0.08749999999999995 0.35395743290882314 -0.20636658252791776
v -0.08749999999999995 0.35148355543575605 -0.0065569382115461955
v -0.08749999999999995 0.004835797697239463 -0.23412147087555862
v -0.08749999999999995 -0.004978564459961143 -0.009335621019640583
v 0.08749999999999995 0.35395743290882314 -0.20636658252791776
v 0.08749999999999995 0.35148355543575605 -0.0065569382115461955
v 0.08749999999999995 0.004835797697239463 -0.23412147087555862
v 0.08749999999999995 -0.004978564459961143 -0.009335621019640583
vt 0.49645191623554275 0.09531250000000002
vt 0.4464962733866972 0.09531250000000002
vt 0.4406387331607533 0.007952870608035179
vt 0.4968612668392467 0.006195256665588844
vt 0.3738613543356245 0.005948116540878456
vt 0.3676021976295211 0.09791404951276195
vt 0.3176470309886503 0.09769592495145463
vt 0.3176470309886503 0.003945031260158216
vt 0.65625 0.65625
vt 0.703125 0.65625
vt 0.703125 0.703125
vt 0.65625 0.703125
vt 0.3828125 0.2109375
vt 0.4296875 0.2109375
vt 0.4296875 0.2421875
vt 0.3828125 0.2421875
vt 0.4312499999999997 0.006250000000000089
vt 0.4312499999999997 0.09843750000000007
vt 0.37187499999999973 0.09843750000000007
vt 0.37187499999999973 0.006250000000000089
vt 0.31250000000000006 0.09375
vt 0.26875000000000004 0.09375
vt 0.26875000000000004 0.004687499999999956
vt 0.31250000000000006 0.004687499999999956
vn -1 0 0
vn 1 0 0
vn 0 0.9999233621071293 0.01238022263026321
vn 0 -0.9990482215818578 -0.043619387365336
vn 0 0.0792491555462739 -0.996854839655806
vn 0 -0.007794933133080462 0.9999696190472243
usemtl m_2e9166c8-080e-a34d-58b0-8b41c6282c56
f 50/161/41 49/162/41 51/163/41 52/164/41
f 55/165/42 53/166/42 54/167/42 56/168/42
f 53/169/43 49/170/43 50/171/43 54/172/43
f 52/173/44 51/174/44 55/175/44 56/176/44
f 51/177/45 49/178/45 53/179/45 55/180/45
f 54/181/46 50/182/46 52/183/46 56/184/46